<svg xmlns="http://www.w3.org/2000/svg" width="772" height="256" viewBox="0 0 772 256" role="img" aria-label="GitLab activity for DomPolizzi: 5872 commits in the last year">
<style>
text{font-family:-apple-system,BlinkMacSystemFont,"Segoe UI",Helvetica,Arial,sans-serif;font-size:11px;fill:#1f2328}
.title{font-size:15px;font-weight:600} .num{font-size:18px;font-weight:600} .muted{fill:#656d76;font-size:10px}
</style>
<rect x="0.5" y="0.5" width="771" height="255" rx="8" fill="#ffffff" stroke="#d8dee4"/>
<path transform="translate(24,14) scale(0.9)" fill="#e24329" d="M18.5 8.1 15.9 0.2c-.1-.3-.6-.3-.7 0L12.6 8.1H6.4L3.8.2c-.1-.3-.6-.3-.7 0L.5 8.1c-.1.3 0 .6.2.8l8.8 6.4 8.8-6.4c.3-.2.4-.5.2-.8z"/>
<text x="48" y="26" class="title">GitLab activity · @DomPolizzi</text>
<text x="748" y="26" text-anchor="end" class="muted">last 52 weeks · updated 2026-09-25</text>
<text x="24" y="66" class="num">5872</text><text x="24" y="82" class="muted">Commits</text><text x="145" y="66" class="num">547</text><text x="145" y="82" class="muted">MRs merged</text><text x="265" y="66" class="num">205</text><text x="265" y="82" class="muted">Issues closed</text><text x="386" y="66" class="num">33</text><text x="386" y="82" class="muted">Projects</text><text x="507" y="66" class="num">151</text><text x="507" y="82" class="muted">Active days</text><text x="627" y="66" class="num">4d</text><text x="627" y="82" class="muted">Streak</text>
<text x="52" y="110" class="muted">Oct</text><text x="108" y="110" class="muted">Nov</text><text x="178" y="110" class="muted">Dec</text><text x="234" y="110" class="muted">Jan</text><text x="290" y="110" class="muted">Feb</text><text x="346" y="110" class="muted">Mar</text><text x="416" y="110" class="muted">Apr</text><text x="472" y="110" class="muted">May</text><text x="542" y="110" class="muted">Jun</text><text x="598" y="110" class="muted">Jul</text><text x="654" y="110" class="muted">Aug</text><text x="724" y="110" class="muted">Sep</text>
<text x="18" y="141" text-anchor="end" class="muted">M</text>
<text x="18" y="169" text-anchor="end" class="muted">W</text>
<text x="18" y="197" text-anchor="end" class="muted">F</text>
<rect x="24" y="118" width="11" height="11" rx="2" fill="#eef1f4"><title>2025-09-21: 0 contributions</title></rect><rect x="24" y="132" width="11" height="11" rx="2" fill="#eef1f4"><title>2025-09-22: 0 contributions</title></rect><rect x="24" y="146" width="11" height="11" rx="2" fill="#b7d3f6"><title>2025-09-23: 1 contribution</title></rect><rect x="24" y="160" width="11" height="11" rx="2" fill="#b7d3f6"><title>2025-09-24: 8 contributions</title></rect><rect x="24" y="174" width="11" height="11" rx="2" fill="#eef1f4"><title>2025-09-25: 0 contributions</title></rect><rect x="24" y="188" width="11" height="11" rx="2" fill="#b7d3f6"><title>2025-09-26: 1 contribution</title></rect><rect x="24" y="202" width="11" height="11" rx="2" fill="#eef1f4"><title>2025-09-27: 0 contributions</title></rect><rect x="38" y="118" width="11" height="11" rx="2" fill="#eef1f4"><title>2025-09-28: 0 contributions</title></rect><rect x="38" y="132" width="11" height="11" rx="2" fill="#eef1f4"><title>2025-09-29: 0 contributions</title></rect><rect x="38" y="146" width="11" height="11" rx="2" fill="#eef1f4"><title>2025-09-30: 0 contributions</title></rect><rect x="38" y="160" width="11" height="11" rx="2" fill="#eef1f4"><title>2025-10-01: 0 contributions</title></rect><rect x="38" y="174" width="11" height="11" rx="2" fill="#eef1f4"><title>2025-10-02: 0 contributions</title></rect><rect x="38" y="188" width="11" height="11" rx="2" fill="#eef1f4"><title>2025-10-03: 0 contributions</title></rect><rect x="38" y="202" width="11" height="11" rx="2" fill="#eef1f4"><title>2025-10-04: 0 contributions</title></rect><rect x="52" y="118" width="11" height="11" rx="2" fill="#eef1f4"><title>2025-10-05: 0 contributions</title></rect><rect x="52" y="132" width="11" height="11" rx="2" fill="#eef1f4"><title>2025-10-06: 0 contributions</title></rect><rect x="52" y="146" width="11" height="11" rx="2" fill="#eef1f4"><title>2025-10-07: 0 contributions</title></rect><rect x="52" y="160" width="11" height="11" rx="2" fill="#eef1f4"><title>2025-10-08: 0 contributions</title></rect><rect x="52" y="174" width="11" height="11" rx="2" fill="#eef1f4"><title>2025-10-09: 0 contributions</title></rect><rect x="52" y="188" width="11" height="11" rx="2" fill="#eef1f4"><title>2025-10-10: 0 contributions</title></rect><rect x="52" y="202" width="11" height="11" rx="2" fill="#eef1f4"><title>2025-10-11: 0 contributions</title></rect><rect x="66" y="118" width="11" height="11" rx="2" fill="#eef1f4"><title>2025-10-12: 0 contributions</title></rect><rect x="66" y="132" width="11" height="11" rx="2" fill="#eef1f4"><title>2025-10-13: 0 contributions</title></rect><rect x="66" y="146" width="11" height="11" rx="2" fill="#eef1f4"><title>2025-10-14: 0 contributions</title></rect><rect x="66" y="160" width="11" height="11" rx="2" fill="#eef1f4"><title>2025-10-15: 0 contributions</title></rect><rect x="66" y="174" width="11" height="11" rx="2" fill="#eef1f4"><title>2025-10-16: 0 contributions</title></rect><rect x="66" y="188" width="11" height="11" rx="2" fill="#eef1f4"><title>2025-10-17: 0 contributions</title></rect><rect x="66" y="202" width="11" height="11" rx="2" fill="#eef1f4"><title>2025-10-18: 0 contributions</title></rect><rect x="80" y="118" width="11" height="11" rx="2" fill="#eef1f4"><title>2025-10-19: 0 contributions</title></rect><rect x="80" y="132" width="11" height="11" rx="2" fill="#eef1f4"><title>2025-10-20: 0 contributions</title></rect><rect x="80" y="146" width="11" height="11" rx="2" fill="#b7d3f6"><title>2025-10-21: 1 contribution</title></rect><rect x="80" y="160" width="11" height="11" rx="2" fill="#b7d3f6"><title>2025-10-22: 4 contributions</title></rect><rect x="80" y="174" width="11" height="11" rx="2" fill="#eef1f4"><title>2025-10-23: 0 contributions</title></rect><rect x="80" y="188" width="11" height="11" rx="2" fill="#eef1f4"><title>2025-10-24: 0 contributions</title></rect><rect x="80" y="202" width="11" height="11" rx="2" fill="#eef1f4"><title>2025-10-25: 0 contributions</title></rect><rect x="94" y="118" width="11" height="11" rx="2" fill="#6da7ec"><title>2025-10-26: 9 contributions</title></rect><rect x="94" y="132" width="11" height="11" rx="2" fill="#eef1f4"><title>2025-10-27: 0 contributions</title></rect><rect x="94" y="146" width="11" height="11" rx="2" fill="#b7d3f6"><title>2025-10-28: 8 contributions</title></rect><rect x="94" y="160" width="11" height="11" rx="2" fill="#eef1f4"><title>2025-10-29: 0 contributions</title></rect><rect x="94" y="174" width="11" height="11" rx="2" fill="#eef1f4"><title>2025-10-30: 0 contributions</title></rect><rect x="94" y="188" width="11" height="11" rx="2" fill="#eef1f4"><title>2025-10-31: 0 contributions</title></rect><rect x="94" y="202" width="11" height="11" rx="2" fill="#eef1f4"><title>2025-11-01: 0 contributions</title></rect><rect x="108" y="118" width="11" height="11" rx="2" fill="#eef1f4"><title>2025-11-02: 0 contributions</title></rect><rect x="108" y="132" width="11" height="11" rx="2" fill="#eef1f4"><title>2025-11-03: 0 contributions</title></rect><rect x="108" y="146" width="11" height="11" rx="2" fill="#eef1f4"><title>2025-11-04: 0 contributions</title></rect><rect x="108" y="160" width="11" height="11" rx="2" fill="#eef1f4"><title>2025-11-05: 0 contributions</title></rect><rect x="108" y="174" width="11" height="11" rx="2" fill="#eef1f4"><title>2025-11-06: 0 contributions</title></rect><rect x="108" y="188" width="11" height="11" rx="2" fill="#eef1f4"><title>2025-11-07: 0 contributions</title></rect><rect x="108" y="202" width="11" height="11" rx="2" fill="#eef1f4"><title>2025-11-08: 0 contributions</title></rect><rect x="122" y="118" width="11" height="11" rx="2" fill="#eef1f4"><title>2025-11-09: 0 contributions</title></rect><rect x="122" y="132" width="11" height="11" rx="2" fill="#eef1f4"><title>2025-11-10: 0 contributions</title></rect><rect x="122" y="146" width="11" height="11" rx="2" fill="#eef1f4"><title>2025-11-11: 0 contributions</title></rect><rect x="122" y="160" width="11" height="11" rx="2" fill="#6da7ec"><title>2025-11-12: 15 contributions</title></rect><rect x="122" y="174" width="11" height="11" rx="2" fill="#b7d3f6"><title>2025-11-13: 3 contributions</title></rect><rect x="122" y="188" width="11" height="11" rx="2" fill="#b7d3f6"><title>2025-11-14: 2 contributions</title></rect><rect x="122" y="202" width="11" height="11" rx="2" fill="#eef1f4"><title>2025-11-15: 0 contributions</title></rect><rect x="136" y="118" width="11" height="11" rx="2" fill="#eef1f4"><title>2025-11-16: 0 contributions</title></rect><rect x="136" y="132" width="11" height="11" rx="2" fill="#eef1f4"><title>2025-11-17: 0 contributions</title></rect><rect x="136" y="146" width="11" height="11" rx="2" fill="#eef1f4"><title>2025-11-18: 0 contributions</title></rect><rect x="136" y="160" width="11" height="11" rx="2" fill="#eef1f4"><title>2025-11-19: 0 contributions</title></rect><rect x="136" y="174" width="11" height="11" rx="2" fill="#b7d3f6"><title>2025-11-20: 5 contributions</title></rect><rect x="136" y="188" width="11" height="11" rx="2" fill="#eef1f4"><title>2025-11-21: 0 contributions</title></rect><rect x="136" y="202" width="11" height="11" rx="2" fill="#eef1f4"><title>2025-11-22: 0 contributions</title></rect><rect x="150" y="118" width="11" height="11" rx="2" fill="#eef1f4"><title>2025-11-23: 0 contributions</title></rect><rect x="150" y="132" width="11" height="11" rx="2" fill="#eef1f4"><title>2025-11-24: 0 contributions</title></rect><rect x="150" y="146" width="11" height="11" rx="2" fill="#eef1f4"><title>2025-11-25: 0 contributions</title></rect><rect x="150" y="160" width="11" height="11" rx="2" fill="#eef1f4"><title>2025-11-26: 0 contributions</title></rect><rect x="150" y="174" width="11" height="11" rx="2" fill="#eef1f4"><title>2025-11-27: 0 contributions</title></rect><rect x="150" y="188" width="11" height="11" rx="2" fill="#eef1f4"><title>2025-11-28: 0 contributions</title></rect><rect x="150" y="202" width="11" height="11" rx="2" fill="#eef1f4"><title>2025-11-29: 0 contributions</title></rect><rect x="164" y="118" width="11" height="11" rx="2" fill="#eef1f4"><title>2025-11-30: 0 contributions</title></rect><rect x="164" y="132" width="11" height="11" rx="2" fill="#eef1f4"><title>2025-12-01: 0 contributions</title></rect><rect x="164" y="146" width="11" height="11" rx="2" fill="#eef1f4"><title>2025-12-02: 0 contributions</title></rect><rect x="164" y="160" width="11" height="11" rx="2" fill="#eef1f4"><title>2025-12-03: 0 contributions</title></rect><rect x="164" y="174" width="11" height="11" rx="2" fill="#b7d3f6"><title>2025-12-04: 1 contribution</title></rect><rect x="164" y="188" width="11" height="11" rx="2" fill="#eef1f4"><title>2025-12-05: 0 contributions</title></rect><rect x="164" y="202" width="11" height="11" rx="2" fill="#eef1f4"><title>2025-12-06: 0 contributions</title></rect><rect x="178" y="118" width="11" height="11" rx="2" fill="#eef1f4"><title>2025-12-07: 0 contributions</title></rect><rect x="178" y="132" width="11" height="11" rx="2" fill="#eef1f4"><title>2025-12-08: 0 contributions</title></rect><rect x="178" y="146" width="11" height="11" rx="2" fill="#eef1f4"><title>2025-12-09: 0 contributions</title></rect><rect x="178" y="160" width="11" height="11" rx="2" fill="#b7d3f6"><title>2025-12-10: 1 contribution</title></rect><rect x="178" y="174" width="11" height="11" rx="2" fill="#eef1f4"><title>2025-12-11: 0 contributions</title></rect><rect x="178" y="188" width="11" height="11" rx="2" fill="#eef1f4"><title>2025-12-12: 0 contributions</title></rect><rect x="178" y="202" width="11" height="11" rx="2" fill="#eef1f4"><title>2025-12-13: 0 contributions</title></rect><rect x="192" y="118" width="11" height="11" rx="2" fill="#eef1f4"><title>2025-12-14: 0 contributions</title></rect><rect x="192" y="132" width="11" height="11" rx="2" fill="#184f95"><title>2025-12-15: 75 contributions</title></rect><rect x="192" y="146" width="11" height="11" rx="2" fill="#eef1f4"><title>2025-12-16: 0 contributions</title></rect><rect x="192" y="160" width="11" height="11" rx="2" fill="#eef1f4"><title>2025-12-17: 0 contributions</title></rect><rect x="192" y="174" width="11" height="11" rx="2" fill="#eef1f4"><title>2025-12-18: 0 contributions</title></rect><rect x="192" y="188" width="11" height="11" rx="2" fill="#eef1f4"><title>2025-12-19: 0 contributions</title></rect><rect x="192" y="202" width="11" height="11" rx="2" fill="#eef1f4"><title>2025-12-20: 0 contributions</title></rect><rect x="206" y="118" width="11" height="11" rx="2" fill="#eef1f4"><title>2025-12-21: 0 contributions</title></rect><rect x="206" y="132" width="11" height="11" rx="2" fill="#eef1f4"><title>2025-12-22: 0 contributions</title></rect><rect x="206" y="146" width="11" height="11" rx="2" fill="#eef1f4"><title>2025-12-23: 0 contributions</title></rect><rect x="206" y="160" width="11" height="11" rx="2" fill="#eef1f4"><title>2025-12-24: 0 contributions</title></rect><rect x="206" y="174" width="11" height="11" rx="2" fill="#eef1f4"><title>2025-12-25: 0 contributions</title></rect><rect x="206" y="188" width="11" height="11" rx="2" fill="#eef1f4"><title>2025-12-26: 0 contributions</title></rect><rect x="206" y="202" width="11" height="11" rx="2" fill="#eef1f4"><title>2025-12-27: 0 contributions</title></rect><rect x="220" y="118" width="11" height="11" rx="2" fill="#eef1f4"><title>2025-12-28: 0 contributions</title></rect><rect x="220" y="132" width="11" height="11" rx="2" fill="#eef1f4"><title>2025-12-29: 0 contributions</title></rect><rect x="220" y="146" width="11" height="11" rx="2" fill="#eef1f4"><title>2025-12-30: 0 contributions</title></rect><rect x="220" y="160" width="11" height="11" rx="2" fill="#eef1f4"><title>2025-12-31: 0 contributions</title></rect><rect x="220" y="174" width="11" height="11" rx="2" fill="#eef1f4"><title>2026-01-01: 0 contributions</title></rect><rect x="220" y="188" width="11" height="11" rx="2" fill="#eef1f4"><title>2026-01-02: 0 contributions</title></rect><rect x="220" y="202" width="11" height="11" rx="2" fill="#eef1f4"><title>2026-01-03: 0 contributions</title></rect><rect x="234" y="118" width="11" height="11" rx="2" fill="#eef1f4"><title>2026-01-04: 0 contributions</title></rect><rect x="234" y="132" width="11" height="11" rx="2" fill="#b7d3f6"><title>2026-01-05: 1 contribution</title></rect><rect x="234" y="146" width="11" height="11" rx="2" fill="#eef1f4"><title>2026-01-06: 0 contributions</title></rect><rect x="234" y="160" width="11" height="11" rx="2" fill="#eef1f4"><title>2026-01-07: 0 contributions</title></rect><rect x="234" y="174" width="11" height="11" rx="2" fill="#eef1f4"><title>2026-01-08: 0 contributions</title></rect><rect x="234" y="188" width="11" height="11" rx="2" fill="#eef1f4"><title>2026-01-09: 0 contributions</title></rect><rect x="234" y="202" width="11" height="11" rx="2" fill="#eef1f4"><title>2026-01-10: 0 contributions</title></rect><rect x="248" y="118" width="11" height="11" rx="2" fill="#eef1f4"><title>2026-01-11: 0 contributions</title></rect><rect x="248" y="132" width="11" height="11" rx="2" fill="#eef1f4"><title>2026-01-12: 0 contributions</title></rect><rect x="248" y="146" width="11" height="11" rx="2" fill="#eef1f4"><title>2026-01-13: 0 contributions</title></rect><rect x="248" y="160" width="11" height="11" rx="2" fill="#eef1f4"><title>2026-01-14: 0 contributions</title></rect><rect x="248" y="174" width="11" height="11" rx="2" fill="#eef1f4"><title>2026-01-15: 0 contributions</title></rect><rect x="248" y="188" width="11" height="11" rx="2" fill="#b7d3f6"><title>2026-01-16: 1 contribution</title></rect><rect x="248" y="202" width="11" height="11" rx="2" fill="#eef1f4"><title>2026-01-17: 0 contributions</title></rect><rect x="262" y="118" width="11" height="11" rx="2" fill="#eef1f4"><title>2026-01-18: 0 contributions</title></rect><rect x="262" y="132" width="11" height="11" rx="2" fill="#eef1f4"><title>2026-01-19: 0 contributions</title></rect><rect x="262" y="146" width="11" height="11" rx="2" fill="#eef1f4"><title>2026-01-20: 0 contributions</title></rect><rect x="262" y="160" width="11" height="11" rx="2" fill="#eef1f4"><title>2026-01-21: 0 contributions</title></rect><rect x="262" y="174" width="11" height="11" rx="2" fill="#eef1f4"><title>2026-01-22: 0 contributions</title></rect><rect x="262" y="188" width="11" height="11" rx="2" fill="#eef1f4"><title>2026-01-23: 0 contributions</title></rect><rect x="262" y="202" width="11" height="11" rx="2" fill="#eef1f4"><title>2026-01-24: 0 contributions</title></rect><rect x="276" y="118" width="11" height="11" rx="2" fill="#eef1f4"><title>2026-01-25: 0 contributions</title></rect><rect x="276" y="132" width="11" height="11" rx="2" fill="#eef1f4"><title>2026-01-26: 0 contributions</title></rect><rect x="276" y="146" width="11" height="11" rx="2" fill="#eef1f4"><title>2026-01-27: 0 contributions</title></rect><rect x="276" y="160" width="11" height="11" rx="2" fill="#eef1f4"><title>2026-01-28: 0 contributions</title></rect><rect x="276" y="174" width="11" height="11" rx="2" fill="#eef1f4"><title>2026-01-29: 0 contributions</title></rect><rect x="276" y="188" width="11" height="11" rx="2" fill="#b7d3f6"><title>2026-01-30: 2 contributions</title></rect><rect x="276" y="202" width="11" height="11" rx="2" fill="#eef1f4"><title>2026-01-31: 0 contributions</title></rect><rect x="290" y="118" width="11" height="11" rx="2" fill="#eef1f4"><title>2026-02-01: 0 contributions</title></rect><rect x="290" y="132" width="11" height="11" rx="2" fill="#6da7ec"><title>2026-02-02: 9 contributions</title></rect><rect x="290" y="146" width="11" height="11" rx="2" fill="#eef1f4"><title>2026-02-03: 0 contributions</title></rect><rect x="290" y="160" width="11" height="11" rx="2" fill="#eef1f4"><title>2026-02-04: 0 contributions</title></rect><rect x="290" y="174" width="11" height="11" rx="2" fill="#eef1f4"><title>2026-02-05: 0 contributions</title></rect><rect x="290" y="188" width="11" height="11" rx="2" fill="#eef1f4"><title>2026-02-06: 0 contributions</title></rect><rect x="290" y="202" width="11" height="11" rx="2" fill="#eef1f4"><title>2026-02-07: 0 contributions</title></rect><rect x="304" y="118" width="11" height="11" rx="2" fill="#eef1f4"><title>2026-02-08: 0 contributions</title></rect><rect x="304" y="132" width="11" height="11" rx="2" fill="#eef1f4"><title>2026-02-09: 0 contributions</title></rect><rect x="304" y="146" width="11" height="11" rx="2" fill="#eef1f4"><title>2026-02-10: 0 contributions</title></rect><rect x="304" y="160" width="11" height="11" rx="2" fill="#eef1f4"><title>2026-02-11: 0 contributions</title></rect><rect x="304" y="174" width="11" height="11" rx="2" fill="#eef1f4"><title>2026-02-12: 0 contributions</title></rect><rect x="304" y="188" width="11" height="11" rx="2" fill="#eef1f4"><title>2026-02-13: 0 contributions</title></rect><rect x="304" y="202" width="11" height="11" rx="2" fill="#eef1f4"><title>2026-02-14: 0 contributions</title></rect><rect x="318" y="118" width="11" height="11" rx="2" fill="#eef1f4"><title>2026-02-15: 0 contributions</title></rect><rect x="318" y="132" width="11" height="11" rx="2" fill="#eef1f4"><title>2026-02-16: 0 contributions</title></rect><rect x="318" y="146" width="11" height="11" rx="2" fill="#eef1f4"><title>2026-02-17: 0 contributions</title></rect><rect x="318" y="160" width="11" height="11" rx="2" fill="#b7d3f6"><title>2026-02-18: 5 contributions</title></rect><rect x="318" y="174" width="11" height="11" rx="2" fill="#eef1f4"><title>2026-02-19: 0 contributions</title></rect><rect x="318" y="188" width="11" height="11" rx="2" fill="#eef1f4"><title>2026-02-20: 0 contributions</title></rect><rect x="318" y="202" width="11" height="11" rx="2" fill="#eef1f4"><title>2026-02-21: 0 contributions</title></rect><rect x="332" y="118" width="11" height="11" rx="2" fill="#eef1f4"><title>2026-02-22: 0 contributions</title></rect><rect x="332" y="132" width="11" height="11" rx="2" fill="#b7d3f6"><title>2026-02-23: 4 contributions</title></rect><rect x="332" y="146" width="11" height="11" rx="2" fill="#6da7ec"><title>2026-02-24: 9 contributions</title></rect><rect x="332" y="160" width="11" height="11" rx="2" fill="#eef1f4"><title>2026-02-25: 0 contributions</title></rect><rect x="332" y="174" width="11" height="11" rx="2" fill="#eef1f4"><title>2026-02-26: 0 contributions</title></rect><rect x="332" y="188" width="11" height="11" rx="2" fill="#b7d3f6"><title>2026-02-27: 7 contributions</title></rect><rect x="332" y="202" width="11" height="11" rx="2" fill="#eef1f4"><title>2026-02-28: 0 contributions</title></rect><rect x="346" y="118" width="11" height="11" rx="2" fill="#eef1f4"><title>2026-03-01: 0 contributions</title></rect><rect x="346" y="132" width="11" height="11" rx="2" fill="#eef1f4"><title>2026-03-02: 0 contributions</title></rect><rect x="346" y="146" width="11" height="11" rx="2" fill="#eef1f4"><title>2026-03-03: 0 contributions</title></rect><rect x="346" y="160" width="11" height="11" rx="2" fill="#eef1f4"><title>2026-03-04: 0 contributions</title></rect><rect x="346" y="174" width="11" height="11" rx="2" fill="#eef1f4"><title>2026-03-05: 0 contributions</title></rect><rect x="346" y="188" width="11" height="11" rx="2" fill="#eef1f4"><title>2026-03-06: 0 contributions</title></rect><rect x="346" y="202" width="11" height="11" rx="2" fill="#eef1f4"><title>2026-03-07: 0 contributions</title></rect><rect x="360" y="118" width="11" height="11" rx="2" fill="#6da7ec"><title>2026-03-08: 16 contributions</title></rect><rect x="360" y="132" width="11" height="11" rx="2" fill="#b7d3f6"><title>2026-03-09: 2 contributions</title></rect><rect x="360" y="146" width="11" height="11" rx="2" fill="#b7d3f6"><title>2026-03-10: 2 contributions</title></rect><rect x="360" y="160" width="11" height="11" rx="2" fill="#eef1f4"><title>2026-03-11: 0 contributions</title></rect><rect x="360" y="174" width="11" height="11" rx="2" fill="#6da7ec"><title>2026-03-12: 10 contributions</title></rect><rect x="360" y="188" width="11" height="11" rx="2" fill="#eef1f4"><title>2026-03-13: 0 contributions</title></rect><rect x="360" y="202" width="11" height="11" rx="2" fill="#eef1f4"><title>2026-03-14: 0 contributions</title></rect><rect x="374" y="118" width="11" height="11" rx="2" fill="#2a78d6"><title>2026-03-15: 33 contributions</title></rect><rect x="374" y="132" width="11" height="11" rx="2" fill="#6da7ec"><title>2026-03-16: 13 contributions</title></rect><rect x="374" y="146" width="11" height="11" rx="2" fill="#eef1f4"><title>2026-03-17: 0 contributions</title></rect><rect x="374" y="160" width="11" height="11" rx="2" fill="#6da7ec"><title>2026-03-18: 20 contributions</title></rect><rect x="374" y="174" width="11" height="11" rx="2" fill="#eef1f4"><title>2026-03-19: 0 contributions</title></rect><rect x="374" y="188" width="11" height="11" rx="2" fill="#eef1f4"><title>2026-03-20: 0 contributions</title></rect><rect x="374" y="202" width="11" height="11" rx="2" fill="#eef1f4"><title>2026-03-21: 0 contributions</title></rect><rect x="388" y="118" width="11" height="11" rx="2" fill="#eef1f4"><title>2026-03-22: 0 contributions</title></rect><rect x="388" y="132" width="11" height="11" rx="2" fill="#b7d3f6"><title>2026-03-23: 4 contributions</title></rect><rect x="388" y="146" width="11" height="11" rx="2" fill="#eef1f4"><title>2026-03-24: 0 contributions</title></rect><rect x="388" y="160" width="11" height="11" rx="2" fill="#6da7ec"><title>2026-03-25: 11 contributions</title></rect><rect x="388" y="174" width="11" height="11" rx="2" fill="#2a78d6"><title>2026-03-26: 29 contributions</title></rect><rect x="388" y="188" width="11" height="11" rx="2" fill="#2a78d6"><title>2026-03-27: 48 contributions</title></rect><rect x="388" y="202" width="11" height="11" rx="2" fill="#b7d3f6"><title>2026-03-28: 1 contribution</title></rect><rect x="402" y="118" width="11" height="11" rx="2" fill="#eef1f4"><title>2026-03-29: 0 contributions</title></rect><rect x="402" y="132" width="11" height="11" rx="2" fill="#6da7ec"><title>2026-03-30: 12 contributions</title></rect><rect x="402" y="146" width="11" height="11" rx="2" fill="#184f95"><title>2026-03-31: 63 contributions</title></rect><rect x="402" y="160" width="11" height="11" rx="2" fill="#184f95"><title>2026-04-01: 100 contributions</title></rect><rect x="402" y="174" width="11" height="11" rx="2" fill="#eef1f4"><title>2026-04-02: 0 contributions</title></rect><rect x="402" y="188" width="11" height="11" rx="2" fill="#6da7ec"><title>2026-04-03: 10 contributions</title></rect><rect x="402" y="202" width="11" height="11" rx="2" fill="#eef1f4"><title>2026-04-04: 0 contributions</title></rect><rect x="416" y="118" width="11" height="11" rx="2" fill="#184f95"><title>2026-04-05: 126 contributions</title></rect><rect x="416" y="132" width="11" height="11" rx="2" fill="#b7d3f6"><title>2026-04-06: 1 contribution</title></rect><rect x="416" y="146" width="11" height="11" rx="2" fill="#eef1f4"><title>2026-04-07: 0 contributions</title></rect><rect x="416" y="160" width="11" height="11" rx="2" fill="#eef1f4"><title>2026-04-08: 0 contributions</title></rect><rect x="416" y="174" width="11" height="11" rx="2" fill="#6da7ec"><title>2026-04-09: 15 contributions</title></rect><rect x="416" y="188" width="11" height="11" rx="2" fill="#b7d3f6"><title>2026-04-10: 1 contribution</title></rect><rect x="416" y="202" width="11" height="11" rx="2" fill="#eef1f4"><title>2026-04-11: 0 contributions</title></rect><rect x="430" y="118" width="11" height="11" rx="2" fill="#2a78d6"><title>2026-04-12: 56 contributions</title></rect><rect x="430" y="132" width="11" height="11" rx="2" fill="#eef1f4"><title>2026-04-13: 0 contributions</title></rect><rect x="430" y="146" width="11" height="11" rx="2" fill="#b7d3f6"><title>2026-04-14: 5 contributions</title></rect><rect x="430" y="160" width="11" height="11" rx="2" fill="#eef1f4"><title>2026-04-15: 0 contributions</title></rect><rect x="430" y="174" width="11" height="11" rx="2" fill="#eef1f4"><title>2026-04-16: 0 contributions</title></rect><rect x="430" y="188" width="11" height="11" rx="2" fill="#eef1f4"><title>2026-04-17: 0 contributions</title></rect><rect x="430" y="202" width="11" height="11" rx="2" fill="#eef1f4"><title>2026-04-18: 0 contributions</title></rect><rect x="444" y="118" width="11" height="11" rx="2" fill="#eef1f4"><title>2026-04-19: 0 contributions</title></rect><rect x="444" y="132" width="11" height="11" rx="2" fill="#2a78d6"><title>2026-04-20: 44 contributions</title></rect><rect x="444" y="146" width="11" height="11" rx="2" fill="#eef1f4"><title>2026-04-21: 0 contributions</title></rect><rect x="444" y="160" width="11" height="11" rx="2" fill="#b7d3f6"><title>2026-04-22: 7 contributions</title></rect><rect x="444" y="174" width="11" height="11" rx="2" fill="#6da7ec"><title>2026-04-23: 9 contributions</title></rect><rect x="444" y="188" width="11" height="11" rx="2" fill="#eef1f4"><title>2026-04-24: 0 contributions</title></rect><rect x="444" y="202" width="11" height="11" rx="2" fill="#eef1f4"><title>2026-04-25: 0 contributions</title></rect><rect x="458" y="118" width="11" height="11" rx="2" fill="#184f95"><title>2026-04-26: 78 contributions</title></rect><rect x="458" y="132" width="11" height="11" rx="2" fill="#6da7ec"><title>2026-04-27: 9 contributions</title></rect><rect x="458" y="146" width="11" height="11" rx="2" fill="#184f95"><title>2026-04-28: 64 contributions</title></rect><rect x="458" y="160" width="11" height="11" rx="2" fill="#184f95"><title>2026-04-29: 62 contributions</title></rect><rect x="458" y="174" width="11" height="11" rx="2" fill="#184f95"><title>2026-04-30: 65 contributions</title></rect><rect x="458" y="188" width="11" height="11" rx="2" fill="#b7d3f6"><title>2026-05-01: 6 contributions</title></rect><rect x="458" y="202" width="11" height="11" rx="2" fill="#b7d3f6"><title>2026-05-02: 2 contributions</title></rect><rect x="472" y="118" width="11" height="11" rx="2" fill="#eef1f4"><title>2026-05-03: 0 contributions</title></rect><rect x="472" y="132" width="11" height="11" rx="2" fill="#eef1f4"><title>2026-05-04: 0 contributions</title></rect><rect x="472" y="146" width="11" height="11" rx="2" fill="#b7d3f6"><title>2026-05-05: 1 contribution</title></rect><rect x="472" y="160" width="11" height="11" rx="2" fill="#184f95"><title>2026-05-06: 1065 contributions</title></rect><rect x="472" y="174" width="11" height="11" rx="2" fill="#6da7ec"><title>2026-05-07: 19 contributions</title></rect><rect x="472" y="188" width="11" height="11" rx="2" fill="#2a78d6"><title>2026-05-08: 59 contributions</title></rect><rect x="472" y="202" width="11" height="11" rx="2" fill="#6da7ec"><title>2026-05-09: 19 contributions</title></rect><rect x="486" y="118" width="11" height="11" rx="2" fill="#184f95"><title>2026-05-10: 80 contributions</title></rect><rect x="486" y="132" width="11" height="11" rx="2" fill="#184f95"><title>2026-05-11: 86 contributions</title></rect><rect x="486" y="146" width="11" height="11" rx="2" fill="#184f95"><title>2026-05-12: 73 contributions</title></rect><rect x="486" y="160" width="11" height="11" rx="2" fill="#2a78d6"><title>2026-05-13: 30 contributions</title></rect><rect x="486" y="174" width="11" height="11" rx="2" fill="#2a78d6"><title>2026-05-14: 33 contributions</title></rect><rect x="486" y="188" width="11" height="11" rx="2" fill="#6da7ec"><title>2026-05-15: 11 contributions</title></rect><rect x="486" y="202" width="11" height="11" rx="2" fill="#b7d3f6"><title>2026-05-16: 8 contributions</title></rect><rect x="500" y="118" width="11" height="11" rx="2" fill="#6da7ec"><title>2026-05-17: 22 contributions</title></rect><rect x="500" y="132" width="11" height="11" rx="2" fill="#2a78d6"><title>2026-05-18: 27 contributions</title></rect><rect x="500" y="146" width="11" height="11" rx="2" fill="#eef1f4"><title>2026-05-19: 0 contributions</title></rect><rect x="500" y="160" width="11" height="11" rx="2" fill="#2a78d6"><title>2026-05-20: 48 contributions</title></rect><rect x="500" y="174" width="11" height="11" rx="2" fill="#eef1f4"><title>2026-05-21: 0 contributions</title></rect><rect x="500" y="188" width="11" height="11" rx="2" fill="#6da7ec"><title>2026-05-22: 17 contributions</title></rect><rect x="500" y="202" width="11" height="11" rx="2" fill="#eef1f4"><title>2026-05-23: 0 contributions</title></rect><rect x="514" y="118" width="11" height="11" rx="2" fill="#eef1f4"><title>2026-05-24: 0 contributions</title></rect><rect x="514" y="132" width="11" height="11" rx="2" fill="#eef1f4"><title>2026-05-25: 0 contributions</title></rect><rect x="514" y="146" width="11" height="11" rx="2" fill="#6da7ec"><title>2026-05-26: 11 contributions</title></rect><rect x="514" y="160" width="11" height="11" rx="2" fill="#6da7ec"><title>2026-05-27: 9 contributions</title></rect><rect x="514" y="174" width="11" height="11" rx="2" fill="#eef1f4"><title>2026-05-28: 0 contributions</title></rect><rect x="514" y="188" width="11" height="11" rx="2" fill="#eef1f4"><title>2026-05-29: 0 contributions</title></rect><rect x="514" y="202" width="11" height="11" rx="2" fill="#eef1f4"><title>2026-05-30: 0 contributions</title></rect><rect x="528" y="118" width="11" height="11" rx="2" fill="#eef1f4"><title>2026-05-31: 0 contributions</title></rect><rect x="528" y="132" width="11" height="11" rx="2" fill="#eef1f4"><title>2026-06-01: 0 contributions</title></rect><rect x="528" y="146" width="11" height="11" rx="2" fill="#eef1f4"><title>2026-06-02: 0 contributions</title></rect><rect x="528" y="160" width="11" height="11" rx="2" fill="#eef1f4"><title>2026-06-03: 0 contributions</title></rect><rect x="528" y="174" width="11" height="11" rx="2" fill="#b7d3f6"><title>2026-06-04: 1 contribution</title></rect><rect x="528" y="188" width="11" height="11" rx="2" fill="#b7d3f6"><title>2026-06-05: 8 contributions</title></rect><rect x="528" y="202" width="11" height="11" rx="2" fill="#6da7ec"><title>2026-06-06: 17 contributions</title></rect><rect x="542" y="118" width="11" height="11" rx="2" fill="#6da7ec"><title>2026-06-07: 19 contributions</title></rect><rect x="542" y="132" width="11" height="11" rx="2" fill="#2a78d6"><title>2026-06-08: 49 contributions</title></rect><rect x="542" y="146" width="11" height="11" rx="2" fill="#b7d3f6"><title>2026-06-09: 3 contributions</title></rect><rect x="542" y="160" width="11" height="11" rx="2" fill="#b7d3f6"><title>2026-06-10: 7 contributions</title></rect><rect x="542" y="174" width="11" height="11" rx="2" fill="#eef1f4"><title>2026-06-11: 0 contributions</title></rect><rect x="542" y="188" width="11" height="11" rx="2" fill="#2a78d6"><title>2026-06-12: 33 contributions</title></rect><rect x="542" y="202" width="11" height="11" rx="2" fill="#b7d3f6"><title>2026-06-13: 1 contribution</title></rect><rect x="556" y="118" width="11" height="11" rx="2" fill="#b7d3f6"><title>2026-06-14: 2 contributions</title></rect><rect x="556" y="132" width="11" height="11" rx="2" fill="#6da7ec"><title>2026-06-15: 9 contributions</title></rect><rect x="556" y="146" width="11" height="11" rx="2" fill="#2a78d6"><title>2026-06-16: 38 contributions</title></rect><rect x="556" y="160" width="11" height="11" rx="2" fill="#184f95"><title>2026-06-17: 79 contributions</title></rect><rect x="556" y="174" width="11" height="11" rx="2" fill="#2a78d6"><title>2026-06-18: 29 contributions</title></rect><rect x="556" y="188" width="11" height="11" rx="2" fill="#6da7ec"><title>2026-06-19: 23 contributions</title></rect><rect x="556" y="202" width="11" height="11" rx="2" fill="#b7d3f6"><title>2026-06-20: 6 contributions</title></rect><rect x="570" y="118" width="11" height="11" rx="2" fill="#6da7ec"><title>2026-06-21: 9 contributions</title></rect><rect x="570" y="132" width="11" height="11" rx="2" fill="#eef1f4"><title>2026-06-22: 0 contributions</title></rect><rect x="570" y="146" width="11" height="11" rx="2" fill="#eef1f4"><title>2026-06-23: 0 contributions</title></rect><rect x="570" y="160" width="11" height="11" rx="2" fill="#b7d3f6"><title>2026-06-24: 2 contributions</title></rect><rect x="570" y="174" width="11" height="11" rx="2" fill="#eef1f4"><title>2026-06-25: 0 contributions</title></rect><rect x="570" y="188" width="11" height="11" rx="2" fill="#eef1f4"><title>2026-06-26: 0 contributions</title></rect><rect x="570" y="202" width="11" height="11" rx="2" fill="#2a78d6"><title>2026-06-27: 32 contributions</title></rect><rect x="584" y="118" width="11" height="11" rx="2" fill="#2a78d6"><title>2026-06-28: 54 contributions</title></rect><rect x="584" y="132" width="11" height="11" rx="2" fill="#2a78d6"><title>2026-06-29: 58 contributions</title></rect><rect x="584" y="146" width="11" height="11" rx="2" fill="#2a78d6"><title>2026-06-30: 30 contributions</title></rect><rect x="584" y="160" width="11" height="11" rx="2" fill="#184f95"><title>2026-07-01: 67 contributions</title></rect><rect x="584" y="174" width="11" height="11" rx="2" fill="#2a78d6"><title>2026-07-02: 44 contributions</title></rect><rect x="584" y="188" width="11" height="11" rx="2" fill="#184f95"><title>2026-07-03: 207 contributions</title></rect><rect x="584" y="202" width="11" height="11" rx="2" fill="#184f95"><title>2026-07-04: 174 contributions</title></rect><rect x="598" y="118" width="11" height="11" rx="2" fill="#184f95"><title>2026-07-05: 103 contributions</title></rect><rect x="598" y="132" width="11" height="11" rx="2" fill="#184f95"><title>2026-07-06: 66 contributions</title></rect><rect x="598" y="146" width="11" height="11" rx="2" fill="#2a78d6"><title>2026-07-07: 48 contributions</title></rect><rect x="598" y="160" width="11" height="11" rx="2" fill="#184f95"><title>2026-07-08: 64 contributions</title></rect><rect x="598" y="174" width="11" height="11" rx="2" fill="#184f95"><title>2026-07-09: 200 contributions</title></rect><rect x="598" y="188" width="11" height="11" rx="2" fill="#184f95"><title>2026-07-10: 81 contributions</title></rect><rect x="598" y="202" width="11" height="11" rx="2" fill="#2a78d6"><title>2026-07-11: 46 contributions</title></rect><rect x="612" y="118" width="11" height="11" rx="2" fill="#2a78d6"><title>2026-07-12: 59 contributions</title></rect><rect x="612" y="132" width="11" height="11" rx="2" fill="#eef1f4"><title>2026-07-13: 0 contributions</title></rect><rect x="612" y="146" width="11" height="11" rx="2" fill="#eef1f4"><title>2026-07-14: 0 contributions</title></rect><rect x="612" y="160" width="11" height="11" rx="2" fill="#6da7ec"><title>2026-07-15: 18 contributions</title></rect><rect x="612" y="174" width="11" height="11" rx="2" fill="#2a78d6"><title>2026-07-16: 44 contributions</title></rect><rect x="612" y="188" width="11" height="11" rx="2" fill="#184f95"><title>2026-07-17: 73 contributions</title></rect><rect x="612" y="202" width="11" height="11" rx="2" fill="#6da7ec"><title>2026-07-18: 11 contributions</title></rect><rect x="626" y="118" width="11" height="11" rx="2" fill="#2a78d6"><title>2026-07-19: 29 contributions</title></rect><rect x="626" y="132" width="11" height="11" rx="2" fill="#2a78d6"><title>2026-07-20: 33 contributions</title></rect><rect x="626" y="146" width="11" height="11" rx="2" fill="#6da7ec"><title>2026-07-21: 18 contributions</title></rect><rect x="626" y="160" width="11" height="11" rx="2" fill="#b7d3f6"><title>2026-07-22: 1 contribution</title></rect><rect x="626" y="174" width="11" height="11" rx="2" fill="#2a78d6"><title>2026-07-23: 37 contributions</title></rect><rect x="626" y="188" width="11" height="11" rx="2" fill="#eef1f4"><title>2026-07-24: 0 contributions</title></rect><rect x="626" y="202" width="11" height="11" rx="2" fill="#eef1f4"><title>2026-07-25: 0 contributions</title></rect><rect x="640" y="118" width="11" height="11" rx="2" fill="#eef1f4"><title>2026-07-26: 0 contributions</title></rect><rect x="640" y="132" width="11" height="11" rx="2" fill="#eef1f4"><title>2026-07-27: 0 contributions</title></rect><rect x="640" y="146" width="11" height="11" rx="2" fill="#eef1f4"><title>2026-07-28: 0 contributions</title></rect><rect x="640" y="160" width="11" height="11" rx="2" fill="#eef1f4"><title>2026-07-29: 0 contributions</title></rect><rect x="640" y="174" width="11" height="11" rx="2" fill="#eef1f4"><title>2026-07-30: 0 contributions</title></rect><rect x="640" y="188" width="11" height="11" rx="2" fill="#eef1f4"><title>2026-07-31: 0 contributions</title></rect><rect x="640" y="202" width="11" height="11" rx="2" fill="#eef1f4"><title>2026-08-01: 0 contributions</title></rect><rect x="654" y="118" width="11" height="11" rx="2" fill="#b7d3f6"><title>2026-08-02: 4 contributions</title></rect><rect x="654" y="132" width="11" height="11" rx="2" fill="#6da7ec"><title>2026-08-03: 20 contributions</title></rect><rect x="654" y="146" width="11" height="11" rx="2" fill="#eef1f4"><title>2026-08-04: 0 contributions</title></rect><rect x="654" y="160" width="11" height="11" rx="2" fill="#b7d3f6"><title>2026-08-05: 2 contributions</title></rect><rect x="654" y="174" width="11" height="11" rx="2" fill="#2a78d6"><title>2026-08-06: 39 contributions</title></rect><rect x="654" y="188" width="11" height="11" rx="2" fill="#eef1f4"><title>2026-08-07: 0 contributions</title></rect><rect x="654" y="202" width="11" height="11" rx="2" fill="#eef1f4"><title>2026-08-08: 0 contributions</title></rect><rect x="668" y="118" width="11" height="11" rx="2" fill="#eef1f4"><title>2026-08-09: 0 contributions</title></rect><rect x="668" y="132" width="11" height="11" rx="2" fill="#eef1f4"><title>2026-08-10: 0 contributions</title></rect><rect x="668" y="146" width="11" height="11" rx="2" fill="#eef1f4"><title>2026-08-11: 0 contributions</title></rect><rect x="668" y="160" width="11" height="11" rx="2" fill="#eef1f4"><title>2026-08-12: 0 contributions</title></rect><rect x="668" y="174" width="11" height="11" rx="2" fill="#eef1f4"><title>2026-08-13: 0 contributions</title></rect><rect x="668" y="188" width="11" height="11" rx="2" fill="#eef1f4"><title>2026-08-14: 0 contributions</title></rect><rect x="668" y="202" width="11" height="11" rx="2" fill="#eef1f4"><title>2026-08-15: 0 contributions</title></rect><rect x="682" y="118" width="11" height="11" rx="2" fill="#eef1f4"><title>2026-08-16: 0 contributions</title></rect><rect x="682" y="132" width="11" height="11" rx="2" fill="#eef1f4"><title>2026-08-17: 0 contributions</title></rect><rect x="682" y="146" width="11" height="11" rx="2" fill="#6da7ec"><title>2026-08-18: 13 contributions</title></rect><rect x="682" y="160" width="11" height="11" rx="2" fill="#2a78d6"><title>2026-08-19: 34 contributions</title></rect><rect x="682" y="174" width="11" height="11" rx="2" fill="#184f95"><title>2026-08-20: 75 contributions</title></rect><rect x="682" y="188" width="11" height="11" rx="2" fill="#6da7ec"><title>2026-08-21: 25 contributions</title></rect><rect x="682" y="202" width="11" height="11" rx="2" fill="#2a78d6"><title>2026-08-22: 26 contributions</title></rect><rect x="696" y="118" width="11" height="11" rx="2" fill="#6da7ec"><title>2026-08-23: 15 contributions</title></rect><rect x="696" y="132" width="11" height="11" rx="2" fill="#2a78d6"><title>2026-08-24: 57 contributions</title></rect><rect x="696" y="146" width="11" height="11" rx="2" fill="#184f95"><title>2026-08-25: 69 contributions</title></rect><rect x="696" y="160" width="11" height="11" rx="2" fill="#2a78d6"><title>2026-08-26: 28 contributions</title></rect><rect x="696" y="174" width="11" height="11" rx="2" fill="#eef1f4"><title>2026-08-27: 0 contributions</title></rect><rect x="696" y="188" width="11" height="11" rx="2" fill="#2a78d6"><title>2026-08-28: 54 contributions</title></rect><rect x="696" y="202" width="11" height="11" rx="2" fill="#2a78d6"><title>2026-08-29: 39 contributions</title></rect><rect x="710" y="118" width="11" height="11" rx="2" fill="#2a78d6"><title>2026-08-30: 43 contributions</title></rect><rect x="710" y="132" width="11" height="11" rx="2" fill="#6da7ec"><title>2026-08-31: 23 contributions</title></rect><rect x="710" y="146" width="11" height="11" rx="2" fill="#2a78d6"><title>2026-09-01: 42 contributions</title></rect><rect x="710" y="160" width="11" height="11" rx="2" fill="#eef1f4"><title>2026-09-02: 0 contributions</title></rect><rect x="710" y="174" width="11" height="11" rx="2" fill="#2a78d6"><title>2026-09-03: 50 contributions</title></rect><rect x="710" y="188" width="11" height="11" rx="2" fill="#2a78d6"><title>2026-09-04: 46 contributions</title></rect><rect x="710" y="202" width="11" height="11" rx="2" fill="#eef1f4"><title>2026-09-05: 0 contributions</title></rect><rect x="724" y="118" width="11" height="11" rx="2" fill="#184f95"><title>2026-09-06: 62 contributions</title></rect><rect x="724" y="132" width="11" height="11" rx="2" fill="#eef1f4"><title>2026-09-07: 0 contributions</title></rect><rect x="724" y="146" width="11" height="11" rx="2" fill="#eef1f4"><title>2026-09-08: 0 contributions</title></rect><rect x="724" y="160" width="11" height="11" rx="2" fill="#6da7ec"><title>2026-09-09: 18 contributions</title></rect><rect x="724" y="174" width="11" height="11" rx="2" fill="#184f95"><title>2026-09-10: 180 contributions</title></rect><rect x="724" y="188" width="11" height="11" rx="2" fill="#184f95"><title>2026-09-11: 258 contributions</title></rect><rect x="724" y="202" width="11" height="11" rx="2" fill="#184f95"><title>2026-09-12: 214 contributions</title></rect><rect x="738" y="118" width="11" height="11" rx="2" fill="#184f95"><title>2026-09-13: 72 contributions</title></rect><rect x="738" y="132" width="11" height="11" rx="2" fill="#184f95"><title>2026-09-14: 222 contributions</title></rect><rect x="738" y="146" width="11" height="11" rx="2" fill="#184f95"><title>2026-09-15: 95 contributions</title></rect><rect x="738" y="160" width="11" height="11" rx="2" fill="#b7d3f6"><title>2026-09-16: 3 contributions</title></rect><rect x="738" y="174" width="11" height="11" rx="2" fill="#184f95"><title>2026-09-17: 79 contributions</title></rect><rect x="738" y="188" width="11" height="11" rx="2" fill="#184f95"><title>2026-09-18: 60 contributions</title></rect><rect x="738" y="202" width="11" height="11" rx="2" fill="#184f95"><title>2026-09-19: 164 contributions</title></rect><rect x="752" y="118" width="11" height="11" rx="2" fill="#eef1f4"><title>2026-09-20: 0 contributions</title></rect><rect x="752" y="132" width="11" height="11" rx="2" fill="#184f95"><title>2026-09-21: 84 contributions</title></rect><rect x="752" y="146" width="11" height="11" rx="2" fill="#184f95"><title>2026-09-22: 148 contributions</title></rect><rect x="752" y="160" width="11" height="11" rx="2" fill="#6da7ec"><title>2026-09-23: 25 contributions</title></rect><rect x="752" y="174" width="11" height="11" rx="2" fill="#2a78d6"><title>2026-09-24: 59 contributions</title></rect><rect x="752" y="188" width="11" height="11" rx="2" fill="#eef1f4"><title>2026-09-25: 0 contributions</title></rect>
<text x="24" y="243" class="muted">Longest streak 16 days · 293 MRs opened · 84 issues opened</text>
<text x="602" y="243" class="muted">Less</text><rect x="632" y="234" width="11" height="11" rx="2" fill="#eef1f4"/><rect x="646" y="234" width="11" height="11" rx="2" fill="#b7d3f6"/><rect x="660" y="234" width="11" height="11" rx="2" fill="#6da7ec"/><rect x="674" y="234" width="11" height="11" rx="2" fill="#2a78d6"/><rect x="688" y="234" width="11" height="11" rx="2" fill="#184f95"/><text x="704" y="243" class="muted">More</text>
</svg>
